<svg width="186" height="39" viewBox="0 0 62 13" fill="none" xmlns="http://www.w3.org/2000/svg">
<path fill-rule="evenodd" clip-rule="evenodd" d="M35.8633 11.6201H61.5V13H33.8682V11.7344L40.8818 1.5918H0V0.203125H42.9033V1.44238L35.8633 11.6201ZM1.76953 2.46875L4.55859 9.42969L7.34766 2.46875H8.80664V11H7.68164V7.67773L7.78711 4.0918L4.98633 11H4.125L1.33008 4.10938L1.44141 7.67773V11H0.316406V2.46875H1.76953ZM12.0352 8.77344L11.2324 11H10.0723L13.3301 2.46875H14.3145L17.5781 11H16.4238L15.6094 8.77344H12.0352ZM12.375 7.84766H15.2754L13.8223 3.85742L12.375 7.84766ZM24.9551 9.88086C24.666 10.2949 24.2617 10.6055 23.7422 10.8125C23.2266 11.0156 22.625 11.1172 21.9375 11.1172C21.2422 11.1172 20.625 10.9551 20.0859 10.6309C19.5469 10.3027 19.1289 9.83789 18.832 9.23633C18.5391 8.63477 18.3887 7.9375 18.3809 7.14453V6.40039C18.3809 5.11523 18.6797 4.11914 19.2773 3.41211C19.8789 2.70508 20.7227 2.35156 21.8086 2.35156C22.6992 2.35156 23.416 2.58008 23.959 3.03711C24.502 3.49023 24.834 4.13477 24.9551 4.9707H23.8301C23.6191 3.8418 22.9473 3.27734 21.8145 3.27734C21.0605 3.27734 20.4883 3.54297 20.0977 4.07422C19.7109 4.60156 19.5156 5.36719 19.5117 6.37109V7.06836C19.5117 8.02539 19.7305 8.78711 20.168 9.35352C20.6055 9.91602 21.1973 10.1973 21.9434 10.1973C22.3652 10.1973 22.7344 10.1504 23.0508 10.0566C23.3672 9.96289 23.6289 9.80469 23.8359 9.58203V7.66602H21.8613V6.75195H24.9551V9.88086ZM27.9727 8.77344L27.1699 11H26.0098L29.2676 2.46875H30.252L33.5156 11H32.3613L31.5469 8.77344H27.9727ZM28.3125 7.84766H31.2129L29.7598 3.85742L28.3125 7.84766ZM44.3906 11H45.5156V2.46875H44.3906V11ZM47.6602 11H48.7852V2.46875H47.6602V11ZM56.2734 11H57.4043V2.46875H56.2852V9.07227L51.9785 2.46875H50.8477V11H51.9785V4.42578L56.2734 11ZM59.4844 11H60.6094V2.46875H59.4844V11Z" fill="black"/>
</svg>
